<svg width="1200" height="900" viewBox="0 0 1200 900" fill="none" xmlns="http://www.w3.org/2000/svg">
  <rect width="1200" height="900" fill="#07050B"/>
  <rect x="32" y="32" width="1136" height="836" rx="36" fill="url(#g1)" stroke="rgba(255,255,255,0.08)"/>
  <rect x="82" y="110" width="1038" height="298" rx="28" fill="#0D0B15" stroke="rgba(250,204,21,0.18)"/>
  <rect x="112" y="142" width="306" height="232" rx="18" fill="#14111F"/>
  <rect x="446" y="142" width="306" height="232" rx="18" fill="#14111F"/>
  <rect x="780" y="142" width="306" height="232" rx="18" fill="#14111F"/>
  <path d="M128 318C188 255 274 226 348 251C401 268 462 260 518 207C575 153 650 133 738 189" stroke="#FACC15" stroke-width="6" stroke-linecap="round"/>
  <path d="M462 329C539 305 598 314 666 262C728 214 812 198 892 225C935 239 980 242 1064 192" stroke="#8B5CF6" stroke-width="4" stroke-linecap="round"/>
  <path d="M129 352C241 306 354 344 462 312C576 278 645 184 720 177" stroke="white" stroke-opacity="0.42" stroke-width="2.5" stroke-linecap="round"/>
  <rect x="118" y="386" width="958" height="12" rx="6" fill="#21182D"/>
  <rect x="118" y="412" width="276" height="12" rx="6" fill="#FACC15" fill-opacity="0.84"/>
  <rect x="404" y="412" width="224" height="12" rx="6" fill="#8B5CF6" fill-opacity="0.52"/>
  <rect x="640" y="412" width="162" height="12" rx="6" fill="#FFFFFF" fill-opacity="0.26"/>
  <rect x="812" y="412" width="182" height="12" rx="6" fill="#FACC15" fill-opacity="0.52"/>
  <ellipse cx="610" cy="596" rx="170" ry="190" fill="#110E18"/>
  <circle cx="610" cy="484" r="90" fill="#E8C6A7"/>
  <path d="M528 474C534 405 589 363 657 381C707 394 742 437 742 486C696 468 654 460 614 462C584 464 554 468 528 474Z" fill="#15121A"/>
  <path d="M500 556C556 510 665 508 724 558V720C688 752 649 768 610 768C564 768 521 749 486 714V572L500 556Z" fill="#1B1722"/>
  <path d="M486 584C552 528 669 528 736 594V826H486V584Z" fill="#0F0B14"/>
  <rect x="452" y="610" width="316" height="176" rx="30" fill="#16121E" stroke="rgba(255,255,255,0.08)"/>
  <rect x="514" y="664" width="192" height="42" rx="14" fill="#231A33"/>
  <circle cx="316" cy="706" r="92" fill="#0D0B15" stroke="rgba(255,255,255,0.08)"/>
  <circle cx="904" cy="706" r="92" fill="#0D0B15" stroke="rgba(255,255,255,0.08)"/>
  <path d="M254 706H378" stroke="#FACC15" stroke-width="6" stroke-linecap="round"/>
  <path d="M842 706H966" stroke="#8B5CF6" stroke-width="6" stroke-linecap="round"/>
  <defs>
    <linearGradient id="g1" x1="32" y1="32" x2="1168" y2="868" gradientUnits="userSpaceOnUse">
      <stop stop-color="#161122"/>
      <stop offset="0.5" stop-color="#09070E"/>
      <stop offset="1" stop-color="#060409"/>
    </linearGradient>
  </defs>
</svg>
